<?xml version="1.0" standalone="no"?>
<!DOCTYPE svg PUBLIC "-//W3C//DTD SVG 20010904//EN"
 "http://www.w3.org/TR/2001/REC-SVG-20010904/DTD/svg10.dtd">
<svg version="1.0" xmlns="http://www.w3.org/2000/svg"
 width="455.000000pt" height="251.000000pt" viewBox="0 0 455.000000 251.000000"
 preserveAspectRatio="xMidYMid meet">

<g transform="translate(0.000000,251.000000) scale(0.100000,-0.100000)"
fill="#61dafb" stroke="none">
<path d="M380 1295 l0 -525 120 0 120 0 0 200 0 200 43 0 c81 0 100 -20 247
-262 l83 -138 134 0 c73 0 133 3 133 6 0 9 -190 303 -232 361 -22 28 -54 62
-73 75 -19 12 -35 25 -35 28 0 3 21 14 48 24 62 26 135 102 156 162 18 54 21
151 5 207 -13 50 -71 112 -129 142 -72 36 -147 45 -392 45 l-228 0 0 -525z
m433 331 c50 -21 70 -50 74 -109 8 -108 -61 -167 -194 -167 l-73 0 0 145 0
145 80 0 c46 0 95 -6 113 -14z"/>
<path d="M3868 1717 l-108 -30 0 -84 0 -83 -65 0 -65 0 0 -85 0 -85 65 0 65 0
0 -217 c0 -246 6 -271 73 -330 49 -43 104 -56 203 -50 120 7 124 10 124 112
l0 85 -26 -10 c-14 -6 -38 -10 -54 -10 -80 0 -90 26 -90 245 l0 175 85 0 85 0
0 85 0 85 -85 0 -85 0 0 115 c0 63 -3 115 -7 114 -5 0 -56 -15 -115 -32z"/>
<path d="M1543 1526 c-104 -34 -185 -106 -232 -205 -24 -52 -26 -66 -26 -186
0 -127 1 -132 33 -197 59 -120 154 -176 313 -185 91 -6 195 8 260 34 l39 15 0
84 0 83 -43 -19 c-64 -28 -165 -42 -226 -30 -94 18 -136 54 -148 126 l-6 34
247 0 246 0 0 48 c-1 262 -113 401 -330 409 -53 2 -101 -2 -127 -11z m176
-160 c31 -16 48 -48 57 -106 l7 -40 -137 0 c-154 0 -153 -1 -115 78 36 74 118
103 188 68z"/>
<path d="M2310 1525 c-36 -8 -84 -22 -107 -31 l-43 -16 0 -89 0 -89 58 29
c115 59 247 68 296 22 23 -22 44 -76 33 -87 -3 -3 -64 -14 -135 -24 -146 -21
-214 -46 -260 -93 -81 -83 -83 -241 -6 -327 89 -99 279 -91 372 15 l32 36 0
-51 0 -50 111 0 110 0 -3 283 c-3 261 -5 285 -24 327 -27 58 -77 108 -134 133
-59 26 -209 32 -300 12z m240 -445 c0 -96 -60 -163 -146 -163 -72 0 -115 55
-93 120 16 50 84 77 207 82 31 1 32 0 32 -39z"/>
<path d="M3213 1525 c-157 -44 -254 -150 -284 -311 -39 -209 72 -399 263 -450
98 -26 290 -10 335 28 9 7 13 38 13 98 l0 88 -62 -25 c-81 -33 -177 -30 -232
7 -95 65 -116 239 -39 331 57 68 181 90 272 49 24 -11 47 -20 52 -20 6 0 9 40
7 92 -3 92 -3 93 -33 107 -44 21 -226 25 -292 6z"/>
</g>
</svg>
